<mxfile host="app.diagrams.net" modified="2023-05-25T09:28:45.016Z" agent="Mozilla/5.0 (X11; Linux x86_64; rv:109.0) Gecko/20100101 Firefox/113.0" etag="2Qqd5FVq6MowkAj-Lb2u" version="21.2.9" type="device">
  <diagram name="Page-1" id="vm_Zk2qnfHT9FIZo00_x">
    <mxGraphModel dx="1193" dy="596" grid="1" gridSize="10" guides="1" tooltips="1" connect="1" arrows="1" fold="1" page="1" pageScale="1" pageWidth="850" pageHeight="1100" math="0" shadow="0">
      <root>
        <mxCell id="0" />
        <mxCell id="1" parent="0" />
        <mxCell id="rt69AMbq-huf_4XRHjqj-39" value="HybridVisibilityGraphRouting" style="shape=folder;fontStyle=1;spacingTop=10;tabWidth=40;tabHeight=14;tabPosition=left;html=1;whiteSpace=wrap;verticalAlign=top;fontFamily=Linux Libertine;" parent="1" vertex="1">
          <mxGeometry x="290" y="180" width="560" height="260" as="geometry" />
        </mxCell>
        <mxCell id="rt69AMbq-huf_4XRHjqj-19" style="edgeStyle=orthogonalEdgeStyle;rounded=0;orthogonalLoop=1;jettySize=auto;html=1;entryX=1;entryY=0.5;entryDx=0;entryDy=0;entryPerimeter=0;endArrow=none;endFill=0;exitX=1;exitY=0.25;exitDx=0;exitDy=0;fontFamily=Linux Libertine;" parent="1" source="rt69AMbq-huf_4XRHjqj-2" target="rt69AMbq-huf_4XRHjqj-18" edge="1">
          <mxGeometry relative="1" as="geometry">
            <mxPoint x="200" y="270" as="sourcePoint" />
          </mxGeometry>
        </mxCell>
        <mxCell id="rt69AMbq-huf_4XRHjqj-34" style="edgeStyle=orthogonalEdgeStyle;rounded=0;orthogonalLoop=1;jettySize=auto;html=1;exitX=1;exitY=0.75;exitDx=0;exitDy=0;entryX=1;entryY=0.5;entryDx=0;entryDy=0;entryPerimeter=0;endArrow=none;endFill=0;fontFamily=Linux Libertine;" parent="1" source="rt69AMbq-huf_4XRHjqj-2" target="rt69AMbq-huf_4XRHjqj-32" edge="1">
          <mxGeometry relative="1" as="geometry" />
        </mxCell>
        <mxCell id="rt69AMbq-huf_4XRHjqj-2" value="&lt;p style=&quot;margin:0px;margin-top:6px;text-align:center;&quot;&gt;&lt;b&gt;Agent&lt;/b&gt;&lt;/p&gt;&lt;hr&gt;&lt;p style=&quot;margin:0px;margin-left:8px;&quot;&gt;+ graph: HybrigVisibilityGraph&lt;br&gt;&lt;/p&gt;" style="align=left;overflow=fill;html=1;dropTarget=0;whiteSpace=wrap;fontFamily=Linux Libertine;" parent="1" vertex="1">
          <mxGeometry y="290" width="180" height="60" as="geometry" />
        </mxCell>
        <mxCell id="rt69AMbq-huf_4XRHjqj-3" value="" style="shape=component;jettyWidth=8;jettyHeight=4;fontFamily=Linux Libertine;" parent="rt69AMbq-huf_4XRHjqj-2" vertex="1">
          <mxGeometry x="1" width="20" height="20" relative="1" as="geometry">
            <mxPoint x="-24" y="4" as="offset" />
          </mxGeometry>
        </mxCell>
        <mxCell id="rt69AMbq-huf_4XRHjqj-20" style="edgeStyle=orthogonalEdgeStyle;rounded=0;orthogonalLoop=1;jettySize=auto;html=1;exitX=0;exitY=0.5;exitDx=0;exitDy=0;entryX=0;entryY=0.5;entryDx=0;entryDy=0;entryPerimeter=0;endArrow=none;endFill=0;fontFamily=Linux Libertine;" parent="1" source="rt69AMbq-huf_4XRHjqj-7" target="rt69AMbq-huf_4XRHjqj-18" edge="1">
          <mxGeometry relative="1" as="geometry" />
        </mxCell>
        <mxCell id="rt69AMbq-huf_4XRHjqj-26" style="edgeStyle=orthogonalEdgeStyle;rounded=0;orthogonalLoop=1;jettySize=auto;html=1;exitX=1;exitY=0.5;exitDx=0;exitDy=0;endArrow=none;endFill=0;entryX=1;entryY=0.5;entryDx=0;entryDy=0;entryPerimeter=0;fontFamily=Linux Libertine;" parent="1" source="rt69AMbq-huf_4XRHjqj-7" target="rt69AMbq-huf_4XRHjqj-28" edge="1">
          <mxGeometry relative="1" as="geometry">
            <mxPoint x="510" y="260" as="targetPoint" />
          </mxGeometry>
        </mxCell>
        <mxCell id="rt69AMbq-huf_4XRHjqj-7" value="&lt;p style=&quot;margin:0px;margin-top:6px;text-align:center;&quot;&gt;&lt;b&gt;H.V.GraphGenerator&lt;/b&gt;&lt;/p&gt;&lt;hr&gt;&lt;p style=&quot;margin:0px;margin-left:8px;&quot;&gt;&lt;br&gt;&lt;/p&gt;" style="align=left;overflow=fill;html=1;dropTarget=0;whiteSpace=wrap;fontFamily=Linux Libertine;" parent="1" vertex="1">
          <mxGeometry x="310" y="235" width="180" height="60" as="geometry" />
        </mxCell>
        <mxCell id="rt69AMbq-huf_4XRHjqj-8" value="" style="shape=component;jettyWidth=8;jettyHeight=4;fontFamily=Linux Libertine;" parent="rt69AMbq-huf_4XRHjqj-7" vertex="1">
          <mxGeometry x="1" width="20" height="20" relative="1" as="geometry">
            <mxPoint x="-24" y="4" as="offset" />
          </mxGeometry>
        </mxCell>
        <mxCell id="rt69AMbq-huf_4XRHjqj-18" value="&lt;div&gt;Generate&lt;/div&gt;&lt;div&gt;graph&lt;br&gt;&lt;/div&gt;" style="shape=providedRequiredInterface;html=1;verticalLabelPosition=top;sketch=0;rotation=0;flipH=1;spacing=5;verticalAlign=bottom;spacingTop=0;labelPosition=center;align=center;fontFamily=Linux Libertine;" parent="1" vertex="1">
          <mxGeometry x="240" y="255" width="20" height="20" as="geometry" />
        </mxCell>
        <mxCell id="rt69AMbq-huf_4XRHjqj-27" style="edgeStyle=orthogonalEdgeStyle;rounded=0;orthogonalLoop=1;jettySize=auto;html=1;exitX=0;exitY=0.25;exitDx=0;exitDy=0;endArrow=none;endFill=0;entryX=0;entryY=0.5;entryDx=0;entryDy=0;entryPerimeter=0;fontFamily=Linux Libertine;" parent="1" source="rt69AMbq-huf_4XRHjqj-21" target="rt69AMbq-huf_4XRHjqj-28" edge="1">
          <mxGeometry relative="1" as="geometry">
            <mxPoint x="560" y="260" as="targetPoint" />
          </mxGeometry>
        </mxCell>
        <mxCell id="rt69AMbq-huf_4XRHjqj-37" style="edgeStyle=orthogonalEdgeStyle;rounded=0;orthogonalLoop=1;jettySize=auto;html=1;exitX=0;exitY=0.75;exitDx=0;exitDy=0;entryX=0;entryY=0.5;entryDx=0;entryDy=0;entryPerimeter=0;endArrow=none;endFill=0;fontFamily=Linux Libertine;" parent="1" source="rt69AMbq-huf_4XRHjqj-21" target="rt69AMbq-huf_4XRHjqj-36" edge="1">
          <mxGeometry relative="1" as="geometry" />
        </mxCell>
        <mxCell id="rt69AMbq-huf_4XRHjqj-21" value="&lt;p style=&quot;margin:0px;margin-top:6px;text-align:center;&quot;&gt;&lt;b&gt;VisibilityGraphGenerator&lt;/b&gt;&lt;/p&gt;&lt;hr&gt;&lt;p style=&quot;margin:0px;margin-left:8px;&quot;&gt;&lt;br&gt;&lt;/p&gt;" style="align=left;overflow=fill;html=1;dropTarget=0;whiteSpace=wrap;fontFamily=Linux Libertine;" parent="1" vertex="1">
          <mxGeometry x="620" y="290" width="210" height="60" as="geometry" />
        </mxCell>
        <mxCell id="rt69AMbq-huf_4XRHjqj-22" value="" style="shape=component;jettyWidth=8;jettyHeight=4;fontFamily=Linux Libertine;" parent="rt69AMbq-huf_4XRHjqj-21" vertex="1">
          <mxGeometry x="1" width="20" height="20" relative="1" as="geometry">
            <mxPoint x="-24" y="4" as="offset" />
          </mxGeometry>
        </mxCell>
        <mxCell id="rt69AMbq-huf_4XRHjqj-28" value="&lt;div&gt;Determine&lt;/div&gt;&lt;div&gt;k nearest&lt;/div&gt;&lt;div&gt;visible&lt;/div&gt;&lt;div&gt;neighbors&lt;br&gt;&lt;/div&gt;" style="shape=providedRequiredInterface;html=1;verticalLabelPosition=top;sketch=0;flipH=1;labelPosition=center;align=center;verticalAlign=bottom;fontFamily=Linux Libertine;spacing=5;" parent="1" vertex="1">
          <mxGeometry x="560" y="295" width="20" height="20" as="geometry" />
        </mxCell>
        <mxCell id="rt69AMbq-huf_4XRHjqj-32" value="&lt;div&gt;Answer&lt;/div&gt;&lt;div&gt;routing&lt;/div&gt;&lt;div&gt;request&lt;br&gt;&lt;/div&gt;" style="shape=providedRequiredInterface;html=1;verticalLabelPosition=top;sketch=0;flipH=1;labelPosition=center;align=center;verticalAlign=bottom;fontFamily=Linux Libertine;spacing=5;" parent="1" vertex="1">
          <mxGeometry x="240" y="395" width="20" height="20" as="geometry" />
        </mxCell>
        <mxCell id="rt69AMbq-huf_4XRHjqj-36" value="&lt;div&gt;Determine&lt;/div&gt;&lt;div&gt;visible&lt;/div&gt;&lt;div&gt;neighbors&lt;/div&gt;&lt;div&gt;for single&lt;/div&gt;&lt;div&gt;vertex&lt;/div&gt;" style="shape=providedRequiredInterface;html=1;verticalLabelPosition=bottom;sketch=0;flipH=1;labelPosition=center;align=center;verticalAlign=top;fontFamily=Linux Libertine;spacing=-5;" parent="1" vertex="1">
          <mxGeometry x="560" y="325" width="20" height="20" as="geometry" />
        </mxCell>
        <mxCell id="F-aL3E5Mv5MZ-h2KMpb1-1" value="&lt;b&gt;HybridVisibilityGraph&lt;/b&gt;" style="swimlane;fontStyle=1;align=center;verticalAlign=top;childLayout=stackLayout;horizontal=1;startSize=26;horizontalStack=0;resizeParent=1;resizeParentMax=0;resizeLast=0;collapsible=1;marginBottom=0;whiteSpace=wrap;html=1;fontFamily=Linux Libertine;" vertex="1" parent="1">
          <mxGeometry x="310" y="325" width="180" height="100" as="geometry">
            <mxRectangle x="310" y="470" width="160" height="30" as="alternateBounds" />
          </mxGeometry>
        </mxCell>
        <mxCell id="F-aL3E5Mv5MZ-h2KMpb1-2" value="+ Graph: SpatialGraph" style="text;strokeColor=none;fillColor=none;align=left;verticalAlign=top;spacingLeft=4;spacingRight=4;overflow=hidden;rotatable=0;points=[[0,0.5],[1,0.5]];portConstraint=eastwest;whiteSpace=wrap;html=1;fontFamily=Linux Libertine;" vertex="1" parent="F-aL3E5Mv5MZ-h2KMpb1-1">
          <mxGeometry y="26" width="180" height="26" as="geometry" />
        </mxCell>
        <mxCell id="F-aL3E5Mv5MZ-h2KMpb1-3" value="" style="line;strokeWidth=1;fillColor=none;align=left;verticalAlign=middle;spacingTop=-1;spacingLeft=3;spacingRight=3;rotatable=0;labelPosition=right;points=[];portConstraint=eastwest;strokeColor=inherit;fontFamily=Linux Libertine;" vertex="1" parent="F-aL3E5Mv5MZ-h2KMpb1-1">
          <mxGeometry y="52" width="180" height="8" as="geometry" />
        </mxCell>
        <mxCell id="F-aL3E5Mv5MZ-h2KMpb1-4" value="&lt;div&gt;+ ShortestPath(source, target)&lt;/div&gt;&lt;div&gt;&amp;nbsp;&amp;nbsp;&amp;nbsp;&amp;nbsp;&amp;nbsp; : List&amp;lt;Position&amp;gt;&lt;/div&gt;" style="text;strokeColor=none;fillColor=none;align=left;verticalAlign=top;spacingLeft=4;spacingRight=4;overflow=hidden;rotatable=0;points=[[0,0.5],[1,0.5]];portConstraint=eastwest;whiteSpace=wrap;html=1;fontFamily=Linux Libertine;" vertex="1" parent="F-aL3E5Mv5MZ-h2KMpb1-1">
          <mxGeometry y="60" width="180" height="40" as="geometry" />
        </mxCell>
        <mxCell id="F-aL3E5Mv5MZ-h2KMpb1-7" style="edgeStyle=orthogonalEdgeStyle;orthogonalLoop=1;jettySize=auto;html=1;exitX=0;exitY=0.5;exitDx=0;exitDy=0;entryX=0;entryY=0.5;entryDx=0;entryDy=0;entryPerimeter=0;rounded=0;endArrow=none;endFill=0;" edge="1" parent="1" source="F-aL3E5Mv5MZ-h2KMpb1-4" target="rt69AMbq-huf_4XRHjqj-32">
          <mxGeometry relative="1" as="geometry" />
        </mxCell>
        <mxCell id="F-aL3E5Mv5MZ-h2KMpb1-8" style="edgeStyle=orthogonalEdgeStyle;rounded=0;orthogonalLoop=1;jettySize=auto;html=1;exitX=1;exitY=0.5;exitDx=0;exitDy=0;entryX=1;entryY=0.5;entryDx=0;entryDy=0;entryPerimeter=0;endArrow=none;endFill=0;" edge="1" parent="1" source="F-aL3E5Mv5MZ-h2KMpb1-4" target="rt69AMbq-huf_4XRHjqj-36">
          <mxGeometry relative="1" as="geometry" />
        </mxCell>
      </root>
    </mxGraphModel>
  </diagram>
</mxfile>
